<svg width="48" height="48" viewBox="0 0 48 48" fill="none" xmlns="http://www.w3.org/2000/svg">
<path d="M24 4C12.9727 4 4 12.9727 4 24C4 35.0273 12.9727 44 24 44C35.0273 44 44 35.0273 44 24C44 12.9727 35.0273 4 24 4ZM24 7C33.4062 7 41 14.5938 41 24C41 31.6641 35.957 38.1211 29 40.25V35.1367C29 33.2266 27.8984 31.5898 26.3086 30.7734C29.4453 30.1719 32.0312 28.3984 33.2461 26.0078C34.4609 23.6172 34.1602 20.9023 32.4375 18.7188C32.8828 17.3555 33.375 14.9609 32.1992 13.0742C29.9297 13.0742 28.4648 14.6328 27.7656 15.5977C26.5703 15.207 25.293 15.0039 24 15C22.707 15 21.4258 15.2031 20.2305 15.5938C19.5312 14.625 18.0664 13.0742 15.8008 13.0742C14.4492 15.2383 15.2852 17.5664 15.7305 18.5117C13.8906 20.6875 13.5039 23.4453 14.6914 25.8945C15.875 28.3398 18.4883 30.168 21.6797 30.7773C20.375 31.4531 19.3984 32.6758 19.0977 34.1562H17.7812C16.4844 34.1562 15.9805 33.6289 15.2812 32.7383C14.5898 31.8516 13.8437 31.2539 12.9492 31.0039C12.4687 30.9531 12.1445 31.3203 12.5625 31.6445C13.9844 32.6133 14.082 34.1953 14.6484 35.2266C15.168 36.1602 16.2305 37 17.4297 37H19V40.25C12.043 38.1211 7 31.6641 7 24C7 14.5938 14.5938 7 24 7Z" fill="white"/>
</svg>
