<svg width="56" height="56" viewBox="0 0 56 56" fill="none" xmlns="http://www.w3.org/2000/svg">
<circle cx="28" cy="28" r="28" fill="#015373"/>
<path d="M39 14.6666H18C16.7109 14.6666 15.6667 15.7108 15.6667 17V38C15.6667 39.2891 16.7109 40.3333 18 40.3333H39C40.2892 40.3333 41.3334 39.2891 41.3334 38V17C41.3334 15.7108 40.2892 14.6666 39 14.6666ZM28.5 33.7766C28.5 35.8498 27.2284 37.0118 25.1167 37.0118C23.0307 37.0118 21.7019 35.7926 21.7019 33.821H23.9617C23.9675 34.5525 24.4039 35.0145 25.0782 35.0145C25.7712 35.0145 26.1434 34.5781 26.1434 33.7568V27.4976H28.5V33.7766ZM34.8945 37.0118C32.5507 37.0118 31.076 35.9081 31.0364 34.1231H33.2834C33.3405 34.7975 34.0137 35.2268 34.9902 35.2268C35.8699 35.2268 36.4742 34.8033 36.4742 34.1931C36.4742 33.6798 36.0694 33.4033 35.01 33.1921L33.7909 32.9483C32.0957 32.6275 31.223 31.7035 31.223 30.2463C31.223 28.4356 32.6744 27.248 34.9074 27.248C37.0774 27.248 38.5789 28.4228 38.6174 30.1366H36.4415C36.3902 29.4821 35.7672 29.026 34.9377 29.026C34.1105 29.026 33.5657 29.418 33.5657 30.034C33.5657 30.5415 33.9764 30.8366 34.9517 31.0291L36.144 31.2601C37.9745 31.6136 38.7959 32.4408 38.7959 33.9108C38.797 35.844 37.3212 37.0118 34.8945 37.0118Z" fill="white"/>
</svg>
