<svg width="45" height="36" viewBox="0 0 45 36" fill="none" xmlns="http://www.w3.org/2000/svg">
<path d="M12.1289 9.21805C16.0383 5.30938 22.5351 5.30938 26.4445 9.21805C29.9601 12.7337 30.4805 18.3376 27.5906 22.3805L27.5133 22.493C26.789 23.4985 25.3828 23.7376 24.3773 23.0134C23.3648 22.2891 23.1258 20.8829 23.85 19.8774L23.9273 19.7649C25.5375 17.5079 25.2844 14.4212 23.3226 12.4595C21.1148 10.2516 17.5219 10.2516 15.307 12.4595L7.41796 20.3555C5.20241 22.5071 5.20241 26.1563 7.41796 28.3712C9.37264 30.3329 12.4664 30.586 14.7164 28.9759L14.8289 28.8352C15.8414 28.1743 17.2476 28.4063 17.9648 29.4188C18.689 30.4313 18.457 31.8376 17.4445 32.5618L17.332 32.6391C13.2258 35.529 7.74842 35.0649 4.2335 31.5563C0.263027 27.5837 0.263027 21.143 4.2335 17.1774L12.1289 9.21805ZM32.8711 26.7188C28.8984 30.6915 22.4648 30.6915 18.4922 26.7188C14.9765 23.2032 14.5195 17.6626 17.4094 13.6196L17.4867 13.5071C18.1476 12.5016 19.5539 12.2626 20.6226 12.9868C21.6351 13.6477 21.8742 15.054 21.15 16.1227L21.0726 16.2352C19.4625 18.429 19.7156 21.579 21.6773 23.5407C23.8851 25.7485 27.4781 25.7485 29.693 23.5407L37.582 15.6446C39.7969 13.4298 39.7969 9.78055 37.582 7.62898C35.6273 5.66937 32.5336 5.41344 30.2836 7.0243L30.1711 7.10164C29.1586 7.82586 27.7523 7.53055 27.0351 6.57992C26.3109 5.56883 26.543 4.16328 27.5555 3.44117L27.668 3.36242C31.7109 0.473351 37.2515 0.931718 40.7672 4.44664C44.7398 8.41648 44.7398 14.8571 40.7672 18.8227L32.8711 26.7188Z" fill="white"/>
</svg>
