<svg width="56" height="56" viewBox="0 0 56 56" fill="none" xmlns="http://www.w3.org/2000/svg">
<circle cx="28" cy="28" r="28" fill="#015373"/>
<path d="M28.5 12.2388C27.9244 12.2388 27.3499 12.3898 26.838 12.6917L16.9943 18.4851C15.9946 19.0714 15.375 20.1563 15.375 21.3135V34.0753C15.375 35.2763 16.0296 36.3796 17.084 36.955L20.3097 38.7152C20.8063 38.9865 21.3438 39.1168 21.882 39.1168C22.4595 39.1168 23.0297 38.9616 23.5525 38.6554C24.5587 38.0582 25.1589 37.0038 25.1589 35.8313V21.9543H22.9714V35.8313C22.9714 36.3935 22.5993 36.6772 22.4374 36.7712C22.2777 36.8653 21.8486 37.0617 21.3564 36.7926L18.135 35.0366C17.7828 34.8441 17.5625 34.4756 17.5625 34.0753V21.3135C17.5625 20.9285 17.7683 20.5661 18.1008 20.3693L27.9446 14.5758C28.2858 14.3746 28.7142 14.3767 29.0554 14.5758L38.8992 20.3693C39.2295 20.5661 39.4375 20.9285 39.4375 21.3135V34.0839C39.4375 34.4776 39.2193 34.8483 38.8693 35.0452L29.0255 40.4071C28.6974 40.5821 28.3026 40.5821 27.9745 40.4071L26.0519 39.3561C25.68 39.8155 25.2188 40.2114 24.6719 40.5396C24.4969 40.6489 24.3214 40.7345 24.1464 40.8002L26.9235 42.3297C27.4266 42.5922 27.9531 42.7271 28.5 42.7271C29.0469 42.7271 29.5734 42.5922 30.0765 42.3297L39.9203 36.9507C40.9703 36.3819 41.625 35.287 41.625 34.0839V21.3135C41.625 20.1563 41.0075 19.0714 40.01 18.4851L30.1663 12.6917C29.6533 12.3898 29.0756 12.2388 28.5 12.2388ZM31.6744 21.6339C28.2182 21.6339 26.4663 22.8386 26.4663 25.2142C26.4663 27.9049 29.5652 28.3052 31.0549 28.4955C31.2693 28.5239 31.4594 28.5482 31.6104 28.5767L32.264 28.692C34.539 29.0726 35.0625 29.3307 35.0625 30.0635C35.0625 30.4179 35.0607 31.4905 31.6744 31.4905C28.8023 31.4905 28.2137 30.6382 28.2137 29.3585H26.0262C26.0262 31.3316 27.0063 33.678 31.6744 33.678C36.2813 33.678 37.25 31.7129 37.25 30.0635C37.25 27.3116 34.5763 26.8605 32.6272 26.5302L31.9991 26.4233C31.8176 26.3905 31.5886 26.36 31.3326 26.3293C29.9414 26.15 28.6538 25.8923 28.6538 25.2185C28.6538 24.7307 28.6513 23.8236 31.6744 23.8214C33.6848 23.8214 34.7079 24.483 34.7079 25.7867H36.8954C36.8954 23.7808 35.5201 21.6339 31.6744 21.6339Z" fill="white"/>
</svg>
