<svg width="56" height="56" viewBox="0 0 56 56" fill="none" xmlns="http://www.w3.org/2000/svg">
<circle cx="28" cy="28" r="28" fill="#015373"/>
<path d="M26.1667 13.5C23.5895 13.5 21.5 15.5895 21.5 18.1667V19.3333H27.3333C27.9773 19.3333 28.5 19.856 28.5 20.5C28.5 21.144 27.9773 21.6667 27.3333 21.6667H21.5H20.3333H19.1667C16.5895 21.6667 14.5 23.7562 14.5 26.3333V31C14.5 33.5772 16.5895 35.6667 19.1667 35.6667H20.3333V29.8333C20.3333 27.9037 21.9037 26.3333 23.8333 26.3333H33.1667C33.8107 26.3333 34.3333 25.8107 34.3333 25.1667V18.1667C34.3333 15.5895 32.2438 13.5 29.6667 13.5H26.1667ZM25 15.8333C25.644 15.8333 26.1667 16.356 26.1667 17C26.1667 17.644 25.644 18.1667 25 18.1667C24.356 18.1667 23.8333 17.644 23.8333 17C23.8333 16.356 24.356 15.8333 25 15.8333ZM36.6667 19.3333V25.1667C36.6667 27.0963 35.0963 28.6667 33.1667 28.6667H23.8333C23.1893 28.6667 22.6667 29.1893 22.6667 29.8333V36.8333C22.6667 39.4105 24.7562 41.5 27.3333 41.5H30.8333C33.4105 41.5 35.5 39.4105 35.5 36.8333V35.6667H29.6667C29.0227 35.6667 28.5 35.144 28.5 34.5C28.5 33.856 29.0227 33.3333 29.6667 33.3333H35.5H36.6667H37.8333C40.4105 33.3333 42.5 31.2438 42.5 28.6667V24C42.5 21.4228 40.4105 19.3333 37.8333 19.3333H36.6667ZM32 36.8333C32.644 36.8333 33.1667 37.356 33.1667 38C33.1667 38.644 32.644 39.1667 32 39.1667C31.356 39.1667 30.8333 38.644 30.8333 38C30.8333 37.356 31.356 36.8333 32 36.8333Z" fill="white"/>
</svg>
