<svg width="36" height="15" viewBox="0 0 36 15" fill="none" xmlns="http://www.w3.org/2000/svg">
<path d="M4.016 2.768C4.448 2.064 5.008 1.512 5.696 1.112C6.4 0.711999 7.2 0.511999 8.096 0.511999V4.04H7.208C6.152 4.04 5.352 4.288 4.808 4.784C4.28 5.28 4.016 6.144 4.016 7.376V14H0.656V0.704H4.016V2.768ZM22.7191 7.064C22.7191 7.544 22.6871 7.976 22.6231 8.36H12.9031C12.9831 9.32 13.3191 10.072 13.9111 10.616C14.5031 11.16 15.2311 11.432 16.0951 11.432C17.3431 11.432 18.2311 10.896 18.7591 9.824H22.3831C21.9991 11.104 21.2631 12.16 20.1751 12.992C19.0871 13.808 17.7511 14.216 16.1671 14.216C14.8871 14.216 13.7351 13.936 12.7111 13.376C11.7031 12.8 10.9111 11.992 10.3351 10.952C9.77513 9.912 9.49512 8.712 9.49512 7.352C9.49512 5.976 9.77513 4.768 10.3351 3.728C10.8951 2.688 11.6791 1.888 12.6871 1.328C13.6951 0.768 14.8551 0.487999 16.1671 0.487999C17.4311 0.487999 18.5591 0.759999 19.5511 1.304C20.5591 1.848 21.3351 2.624 21.8791 3.632C22.4391 4.624 22.7191 5.768 22.7191 7.064ZM19.2391 6.104C19.2231 5.24 18.9111 4.552 18.3031 4.04C17.6951 3.512 16.9511 3.248 16.0711 3.248C15.2391 3.248 14.5351 3.504 13.9591 4.016C13.3991 4.512 13.0551 5.208 12.9271 6.104H19.2391ZM30.2596 14.216C29.1716 14.216 28.1956 14.024 27.3316 13.64C26.4676 13.24 25.7796 12.704 25.2676 12.032C24.7716 11.36 24.4996 10.616 24.4516 9.8H27.8356C27.8996 10.312 28.1476 10.736 28.5796 11.072C29.0276 11.408 29.5796 11.576 30.2356 11.576C30.8756 11.576 31.3716 11.448 31.7236 11.192C32.0916 10.936 32.2756 10.608 32.2756 10.208C32.2756 9.776 32.0516 9.456 31.6036 9.248C31.1716 9.024 30.4756 8.784 29.5156 8.528C28.5236 8.288 27.7076 8.04 27.0676 7.784C26.4436 7.528 25.8996 7.136 25.4356 6.608C24.9876 6.08 24.7636 5.368 24.7636 4.472C24.7636 3.736 24.9716 3.064 25.3876 2.456C25.8196 1.848 26.4276 1.368 27.2116 1.016C28.0116 0.664 28.9476 0.487999 30.0196 0.487999C31.6036 0.487999 32.8676 0.888 33.8116 1.688C34.7556 2.472 35.2756 3.536 35.3716 4.88H32.1556C32.1076 4.352 31.8836 3.936 31.4836 3.632C31.0996 3.312 30.5796 3.152 29.9236 3.152C29.3156 3.152 28.8436 3.264 28.5076 3.488C28.1876 3.712 28.0276 4.024 28.0276 4.424C28.0276 4.872 28.2516 5.216 28.6996 5.456C29.1476 5.68 29.8436 5.912 30.7876 6.152C31.7476 6.392 32.5396 6.64 33.1636 6.896C33.7876 7.152 34.3236 7.552 34.7716 8.096C35.2356 8.624 35.4756 9.328 35.4916 10.208C35.4916 10.976 35.2756 11.664 34.8436 12.272C34.4276 12.88 33.8196 13.36 33.0196 13.712C32.2356 14.048 31.3156 14.216 30.2596 14.216Z" fill="white"/>
</svg>
